<?xml version="1.0" encoding="UTF-8"?>
<svg id="Layer_1" data-name="Layer 1" xmlns="http://www.w3.org/2000/svg" viewBox="0 0 17.11 17.11">
  <defs>
    <style>
      .cls-1 {
        fill: #fff;
      }
    </style>
  </defs>
  <path class="cls-1" d="M1.57,5.05V13.66H5.73c.39,0,3.04-.08,3.04-2.5,0-1.52-1.04-2.03-1.57-2.18,.39-.18,1.16-.62,1.16-1.79,0-.65-.09-2.14-2.75-2.14H1.57Zm9.49,.8v.79h3.22v-.79h-3.22Zm-7.6,.67h1.78c.17,0,1.3-.09,1.3,.99,0,.92-.82,1.02-1.15,1.02h-1.92v-2.01Zm9.29,.83c-2.43,0-2.94,2.11-2.94,3.03,0,2.72,2.23,3.03,2.94,3.03,1.92,0,2.47-1.24,2.69-1.94h-1.4c-.05,.18-.46,.76-1.24,.76-1.3,0-1.41-1.02-1.41-1.47h4.13c.08-1.57-.6-3.41-2.78-3.41Zm-.04,1.18c.39,0,.7,.11,.89,.32,.19,.21,.33,.51,.36,.92h-2.56c0-.11,.03-.24,.07-.38,.04-.14,.1-.28,.2-.41,.1-.13,.24-.23,.41-.32,.17-.09,.37-.13,.63-.13Zm-9.24,1.3h2.05c.41,0,1.37,.06,1.37,1.24s-1.21,1.14-1.4,1.14H3.46v-2.37Z"/>
</svg>