<?xml version="1.0" encoding="UTF-8"?>
<svg id="Layer_1" data-name="Layer 1" xmlns="http://www.w3.org/2000/svg" viewBox="0 0 17.11 17.11">
  <defs>
    <style>
      .cls-1 {
        fill: #fff;
      }
    </style>
  </defs>
  <path class="cls-1" d="M5.65,13.46H3.43V6.77h2.23v6.69Zm-1.11-7.58c-.62,0-1.12-.5-1.12-1.12s.5-1.11,1.12-1.11,1.11,.5,1.11,1.11-.5,1.12-1.11,1.12Zm9.14,7.58h-2.14v-3.26c0-.78-.01-1.77-1.11-1.77s-1.29,.85-1.29,1.72v3.31h-2.14V6.77h2.06v.91h.03c.29-.53,.99-1.08,2.03-1.08,2.17,0,2.57,1.39,2.57,3.19,0,0,0,3.67,0,3.67Z"/>
</svg>