<?xml version="1.0" encoding="UTF-8"?>
<svg id="Layer_1" data-name="Layer 1" xmlns="http://www.w3.org/2000/svg" viewBox="0 0 1920 1080">
  <defs>
    <style>
      .cls-1 {
        fill: #0f0fee;
      }
    </style>
  </defs>
  <path class="cls-1" d="M285.54,221.75h127.06V755.23h206.25v104.43H285.54V221.75Z"/>
  <path class="cls-1" d="M844.25,664.72c21.76-79.2,76.58-156.65,147.95-196.68,13.92-7.83,28.72-15.67,43.51-21.76-4.35-41.77-20.02-156.65-73.97-158.39-111.4-3.48-208.87,350.72-208.87,571.77h-80.07c0-116.62,19.15-242.81,53.09-355.94,39.16-128.8,119.23-309.82,253.25-295.02,100.08,11.31,124.45,148.82,134.02,217.57,20.89-2.61,41.77-3.48,62.66-3.48l-.87,80.07c-19.15-.87-37.42,.87-53.96,3.48,.87,31.33,0,65.27-2.61,97.47-3.48,51.35-11.31,289.8-164.48,286.32-100.95-1.74-137.5-120.1-109.65-225.4Zm109.65,145.34c42.64,6.96,65.27-59.18,76.58-129.67,9.57-60.05,11.31-123.58,11.31-147.95-73.97,39.16-117.49,111.4-125.32,187.98-3.48,33.07,4.35,84.42,37.42,89.64Z"/>
  <path class="cls-1" d="M1224.56,665.59V221.75h127.06v426.43c0,49.61,21.76,103.56,79.2,103.56,53.09,0,76.58-53.96,76.58-103.56V221.75h127.06v443.84c0,141.86-88.77,208-203.64,208s-206.26-66.14-206.26-208Z"/>
</svg>