<svg width="370" height="187" viewBox="0 0 370 187" fill="none" xmlns="http://www.w3.org/2000/svg">
<path d="M0 3.8103H34.8091V150.018H91.313V178.639H0V3.8103Z" fill="white"/>
<path d="M153.063 125.213C159.025 103.507 174.043 82.2805 193.595 71.3097C197.409 69.1637 201.463 67.0151 205.515 65.346C204.324 53.8983 200.031 22.4138 185.251 21.9369C154.732 20.9832 128.029 118.057 128.029 178.639H106.093C106.093 146.677 111.339 112.093 120.637 81.0883C131.366 45.7888 153.302 -3.82243 190.017 0.233729C217.435 3.3334 224.112 41.02 226.733 59.862C232.456 59.1467 238.177 58.9082 243.9 58.9082L243.661 80.8526C238.415 80.6142 233.41 81.091 228.878 81.8064C229.117 90.3928 228.878 99.6946 228.163 108.519C227.21 122.593 225.065 187.943 183.103 186.99C155.447 186.513 145.433 154.074 153.063 125.215V125.213ZM183.103 165.045C194.784 166.953 200.984 148.826 204.082 129.507C206.704 113.05 207.181 95.6384 207.181 88.9594C186.916 99.6918 174.994 119.49 172.848 140.478C171.895 149.541 174.04 163.615 183.1 165.045H183.103Z" fill="white"/>
<path d="M257.252 125.451V3.8103H292.061V120.68C292.061 134.276 298.023 149.062 313.759 149.062C328.303 149.062 334.739 134.273 334.739 120.68V3.8103H369.548V125.451C369.548 164.33 345.229 182.457 313.759 182.457C282.289 182.457 257.252 164.33 257.252 125.451Z" fill="white"/>
</svg>
