<?xml version="1.0" encoding="UTF-8"?>
<svg id="Layer_1" data-name="Layer 1" xmlns="http://www.w3.org/2000/svg" viewBox="0 0 637.28 609.09">
  <defs>
    <style>
      .cls-1 {
        fill: #0f0fee;
      }
    </style>
  </defs>
  <path class="cls-1" d="M39.9,100.87v425.34H597.38V100.87H39.9Zm532.48,25V391.4l-160.75-140.97-8.13,6.19c-.44,.33-44.33,33.77-89.31,72.27l-2.31,1.98c-3.92,3.36-7.58,6.49-11.01,9.43-34.59-52.85-84.34-119.7-92.21-130.24l-9.97-13.34L64.9,374.23V125.87h507.48ZM306.7,444.86c-4.5,6.18-11.13,9.42-19.14,9.37-8.88-.05-16.33-4.27-20.45-11.58-5.43-9.63-4.14-22.53,3.53-35.39,6.02-10.09,12.73-17.8,24.8-28.92,7.29,12,12.48,21.65,14.38,27.43,4.93,15.02,3.76,29.63-3.12,39.08Zm-241.8,56.35v-85.45L198.56,238.42c22.61,30.67,58.3,80.22,83.31,118.49-15.82,14.28-24.61,24.02-32.69,37.54-12.4,20.77-13.8,42.81-3.85,60.48,8.52,15.11,24.25,24.19,42.08,24.3,.11,0,.22,0,.34,0,16.02,0,29.92-6.97,39.16-19.65,11.61-15.93,14.11-38.96,6.67-61.61-2.62-7.98-9.66-20.91-19.16-36.37,4.14-3.56,8.68-7.45,13.7-11.75l2.32-1.98c33.04-28.27,65.48-53.79,80.11-65.14l161.83,141.91v76.56H64.9Z"/>
  <path class="cls-1" d="M509.62,230.04c23.5,0,42.63-19.12,42.63-42.63s-19.12-42.63-42.63-42.63-42.63,19.12-42.63,42.63,19.12,42.63,42.63,42.63Zm0-60.26c9.72,0,17.63,7.91,17.63,17.63s-7.91,17.63-17.63,17.63-17.63-7.91-17.63-17.63,7.91-17.63,17.63-17.63Z"/>
</svg>